# xmcd
#
# Track frame offsets:
#	150
#	25741
#	41029
#	54807
#	72175
#	85478
#	97001
#	114798
#	131797
#	152131
#	172886
#	184989
#	197155
#	217701
#	228849
#	254935
#
# Disc length: 3790 seconds
#
# Revision: 0
# Processed by: cddbd v1.5.1PL0 Copyright (c) Steve Scherf et al.
# Submitted via: dBpowerAMP V4.0
#
DISCID=d90ecc10
DTITLE=聖經-舊約 - Disc 50
DYEAR=1900
DGENRE=
TTITLE0=以賽亞書第51章
TTITLE1=以賽亞書第52章
TTITLE2=以賽亞書第53章
TTITLE3=以賽亞書第54章
TTITLE4=以賽亞書第55章
TTITLE5=以賽亞書第56章
TTITLE6=以賽亞書第57章
TTITLE7=以賽亞書第58章
TTITLE8=以賽亞書第59章
TTITLE9=以賽亞書第60章
TTITLE10=以賽亞書第61章
TTITLE11=以賽亞書第62章
TTITLE12=以賽亞書第63章
TTITLE13=以賽亞書第64章
TTITLE14=以賽亞書第65章
TTITLE15=以賽亞書第66章
EXTD=
EXTT0=
EXTT1=
EXTT2=
EXTT3=
EXTT4=
EXTT5=
EXTT6=
EXTT7=
EXTT8=
EXTT9=
EXTT10=
EXTT11=
EXTT12=
EXTT13=
EXTT14=
EXTT15=
PLAYORDER=
